<?xml version="1.0" standalone="no"?>
<!DOCTYPE svg PUBLIC "-//W3C//DTD SVG 20010904//EN"
 "http://www.w3.org/TR/2001/REC-SVG-20010904/DTD/svg10.dtd">
<svg version="1.0" xmlns="http://www.w3.org/2000/svg"
 width="47.000000pt" height="38.000000pt" viewBox="0 0 47.000000 38.000000"
 preserveAspectRatio="xMidYMid meet">
<metadata>
Created by potrace 1.15, written by Peter Selinger 2001-2017
</metadata>
<g transform="translate(0.000000,38.000000) scale(0.100000,-0.100000)"
fill="#000000" stroke="none">
<path d="M145 363 c-49 -26 -96 -75 -121 -128 -81 -170 57 -294 229 -207 l56
28 21 -28 c16 -21 29 -28 55 -28 37 0 75 28 75 55 0 22 -9 19 -38 -12 -24 -26
-25 -26 -38 -8 -23 31 -17 80 15 127 31 46 71 138 71 163 0 21 -19 19 -26 -2
-4 -10 -20 -47 -37 -83 l-30 -65 -7 50 c-11 75 -18 91 -56 124 -29 26 -43 31
-87 31 -29 -1 -65 -8 -82 -17z m121 -27 c26 -22 28 -30 34 -132 8 -120 10
-116 -62 -154 -20 -11 -54 -22 -76 -26 -35 -5 -44 -3 -66 19 -32 32 -34 79 -7
165 23 74 50 114 93 135 44 22 52 21 84 -7z"/>
</g>
</svg>
