<?xml version="1.0" standalone="no"?>
<!DOCTYPE svg PUBLIC "-//W3C//DTD SVG 20010904//EN"
 "http://www.w3.org/TR/2001/REC-SVG-20010904/DTD/svg10.dtd">
<svg version="1.0" xmlns="http://www.w3.org/2000/svg"
 width="69.000000pt" height="38.000000pt" viewBox="0 0 69.000000 38.000000"
 preserveAspectRatio="xMidYMid meet">
<metadata>
Created by potrace 1.15, written by Peter Selinger 2001-2017
</metadata>
<g transform="translate(0.000000,38.000000) scale(0.100000,-0.100000)"
fill="#000000" stroke="none">
<path d="M46 361 c-18 -19 -45 -84 -46 -108 0 -7 6 -13 14 -13 7 0 19 20 26
44 13 48 42 82 59 71 17 -10 14 -33 -24 -187 -19 -79 -33 -149 -30 -155 6 -17
40 -17 53 0 5 6 20 57 32 112 35 158 68 211 143 229 66 16 71 -31 27 -213 -17
-67 -28 -127 -24 -132 8 -13 40 -11 51 4 6 6 23 64 38 127 37 155 63 195 138
214 65 16 73 -43 26 -189 -30 -96 -31 -122 -3 -150 18 -17 66 -20 95 -5 18 10
49 63 63 108 14 44 -21 23 -39 -23 -19 -51 -59 -85 -77 -67 -9 9 -3 39 22 117
41 133 43 175 10 210 -23 24 -30 27 -83 23 -49 -4 -62 -9 -92 -38 -23 -22 -35
-29 -35 -19 0 33 -44 59 -98 59 -43 0 -57 -5 -84 -29 l-32 -28 -24 28 c-29 35
-79 39 -106 10z"/>
</g>
</svg>
