<?xml version="1.0" standalone="no"?>
<!DOCTYPE svg PUBLIC "-//W3C//DTD SVG 20010904//EN"
 "http://www.w3.org/TR/2001/REC-SVG-20010904/DTD/svg10.dtd">
<svg version="1.0" xmlns="http://www.w3.org/2000/svg"
 width="81.000000pt" height="61.000000pt" viewBox="0 0 81.000000 61.000000"
 preserveAspectRatio="xMidYMid meet">
<metadata>
Created by potrace 1.15, written by Peter Selinger 2001-2017
</metadata>
<g transform="translate(0.000000,61.000000) scale(0.100000,-0.100000)"
fill="#000000" stroke="none">
<path d="M46 591 c-18 -19 -45 -84 -46 -108 0 -7 6 -13 14 -13 7 0 19 20 26
44 13 48 42 82 59 71 17 -10 14 -33 -24 -187 -19 -79 -33 -149 -30 -155 6 -17
40 -17 53 0 5 6 20 57 32 112 35 158 68 211 143 229 65 16 74 -49 27 -190 -31
-91 -32 -120 -4 -148 18 -18 66 -21 95 -6 18 10 49 63 63 108 14 44 -21 23
-39 -23 -19 -51 -59 -85 -77 -67 -9 9 -3 39 22 117 41 132 43 175 11 209 -20
22 -34 26 -78 26 -44 0 -58 -5 -85 -29 l-32 -28 -24 28 c-29 35 -79 39 -106
10z"/>
<path d="M552 373 c-11 -4 -52 -73 -52 -88 0 -3 6 -5 14 -5 7 0 19 14 26 30
13 31 46 57 58 46 3 -4 -4 -37 -16 -74 -28 -87 -28 -126 -1 -153 18 -18 30
-20 70 -17 l48 5 -14 -28 c-19 -37 -53 -59 -88 -59 -25 0 -28 2 -17 15 18 21
5 47 -22 43 -33 -4 -37 -51 -6 -72 30 -21 63 -20 114 5 58 28 77 62 114 208
31 125 32 151 6 151 -21 0 -26 -11 -52 -112 -29 -116 -73 -165 -112 -126 -17
17 -15 46 8 113 24 70 25 89 4 109 -15 15 -55 20 -82 9z"/>
</g>
</svg>
