<?xml version="1.0" standalone="no"?>
<!DOCTYPE svg PUBLIC "-//W3C//DTD SVG 20010904//EN"
 "http://www.w3.org/TR/2001/REC-SVG-20010904/DTD/svg10.dtd">
<svg version="1.0" xmlns="http://www.w3.org/2000/svg"
 width="79.000000pt" height="50.000000pt" viewBox="0 0 79.000000 50.000000"
 preserveAspectRatio="xMidYMid meet">
<metadata>
Created by potrace 1.15, written by Peter Selinger 2001-2017
</metadata>
<g transform="translate(0.000000,50.000000) scale(0.100000,-0.100000)"
fill="#000000" stroke="none">
<path d="M46 481 c-18 -19 -45 -84 -46 -108 0 -7 6 -13 14 -13 7 0 19 20 26
44 13 48 42 82 59 71 17 -10 14 -33 -24 -187 -19 -79 -33 -149 -30 -155 6 -17
40 -17 53 0 5 6 20 57 32 112 35 158 68 211 143 229 65 16 74 -49 27 -190 -31
-91 -32 -120 -4 -148 18 -18 66 -21 95 -6 18 10 49 63 63 108 14 44 -21 23
-39 -23 -19 -51 -59 -85 -77 -67 -9 9 -3 39 22 117 41 132 43 175 11 209 -20
22 -34 26 -78 26 -44 0 -58 -5 -85 -29 l-32 -28 -24 28 c-29 35 -79 39 -106
10z"/>
<path d="M585 245 c-14 -13 -25 -31 -25 -40 0 -19 5 -19 35 1 20 13 35 14 72
8 l46 -9 -71 -59 c-65 -53 -132 -124 -132 -140 0 -12 28 -6 40 9 16 19 51 19
76 0 33 -25 79 -19 113 16 17 17 31 39 31 50 0 25 -6 24 -42 -6 -29 -25 -56
-29 -111 -16 -28 6 -27 7 43 66 77 65 138 137 120 143 -6 2 -22 -5 -34 -17
-28 -26 -38 -26 -61 -1 -25 28 -70 26 -100 -5z"/>
</g>
</svg>
